HIERARCHY
ROOT Hips
{
	OFFSET 0.000000 0.000000 0.000000
	CHANNELS 6 Xposition Yposition Zposition Xrotation Yrotation Zrotation
	JOINT LeftUpLeg
	{
		OFFSET 3.317160 0.000000 0.000000
		CHANNELS 6 Xposition Yposition Zposition Xrotation Yrotation Zrotation
		JOINT LeftLeg
		{
			OFFSET 0.000000 -16.621309 0.000000
			CHANNELS 6 Xposition Yposition Zposition Xrotation Yrotation Zrotation
			JOINT LeftFoot
			{
				OFFSET 0.000000 -16.132090 0.000000
				CHANNELS 6 Xposition Yposition Zposition Xrotation Yrotation Zrotation
				JOINT LeftToeBase
				{
					OFFSET 0.000000 -1.705429 6.364750
					CHANNELS 6 Xposition Yposition Zposition Xrotation Yrotation Zrotation
					End Site
					{
						OFFSET 0.000000 0.000000 2.952750
					}
				}
			}
		}
	}
	JOINT RightUpLeg
	{
		OFFSET -3.317160 0.000000 0.000000
		CHANNELS 6 Xposition Yposition Zposition Xrotation Yrotation Zrotation
		JOINT RightLeg
		{
			OFFSET 0.000000 -16.621309 0.000000
			CHANNELS 6 Xposition Yposition Zposition Xrotation Yrotation Zrotation
			JOINT RightFoot
			{
				OFFSET 0.000000 -16.132090 0.000000
				CHANNELS 6 Xposition Yposition Zposition Xrotation Yrotation Zrotation
				JOINT RightToeBase
				{
					OFFSET 0.000000 -1.705429 6.364750
					CHANNELS 6 Xposition Yposition Zposition Xrotation Yrotation Zrotation
					End Site
					{
						OFFSET 0.000000 0.000000 2.952750
					}
				}
			}
		}
	}
	JOINT Spine
	{
		OFFSET 0.000000 0.039370 0.000000
		CHANNELS 6 Xposition Yposition Zposition Xrotation Yrotation Zrotation
		JOINT Spine1
		{
			OFFSET 0.000000 9.216790 0.000000
			CHANNELS 6 Xposition Yposition Zposition Xrotation Yrotation Zrotation
			JOINT Neck
			{
				OFFSET 0.000000 8.819270 0.000000
				CHANNELS 3 Xrotation Yrotation Zrotation
				JOINT Head
				{
					OFFSET 0.000000 6.846361 0.000000
					CHANNELS 6 Xposition Yposition Zposition Xrotation Yrotation Zrotation
					End Site
					{
						OFFSET 0.000000 4.527550 0.000000
					}
				}
			}
			JOINT LeftShoulder
			{
				OFFSET 0.000000 8.819270 0.000000
				CHANNELS 3 Xrotation Yrotation Zrotation
				JOINT LeftArm
				{
					OFFSET 7.313730 -0.000031 0.000000
					CHANNELS 6 Xposition Yposition Zposition Xrotation Yrotation Zrotation
					JOINT LeftForeArm
					{
						OFFSET 10.822620 -0.000040 0.000000
						CHANNELS 6 Xposition Yposition Zposition Xrotation Yrotation Zrotation
						JOINT LeftHand
						{
							OFFSET 10.147810 -0.000040 0.000000
							CHANNELS 6 Xposition Yposition Zposition Xrotation Yrotation Zrotation
							JOINT LeftHandThumb
							{
								OFFSET 0.000000 0.000000 0.000000
								CHANNELS 6 Xposition Yposition Zposition Xrotation Yrotation Zrotation
								End Site
								{
									OFFSET 0.000000 0.000000 3.937000
								}
							}
							JOINT L_Wrist_End
							{
								OFFSET 3.937000 -0.000010 0.000000
								CHANNELS 6 Xposition Yposition Zposition Xrotation Yrotation Zrotation
								End Site
								{
									OFFSET 0.000000 0.100000 0.000000
								}
							}
						}
					}
				}
			}
			JOINT RightShoulder
			{
				OFFSET 0.000000 8.819270 0.000000
				CHANNELS 3 Xrotation Yrotation Zrotation
				JOINT RightArm
				{
					OFFSET -7.313730 -0.000031 0.000000
					CHANNELS 6 Xposition Yposition Zposition Xrotation Yrotation Zrotation
					JOINT RightForeArm
					{
						OFFSET -10.822620 -0.000040 0.000000
						CHANNELS 6 Xposition Yposition Zposition Xrotation Yrotation Zrotation
						JOINT RightHand
						{
							OFFSET -10.147810 -0.000040 0.000000
							CHANNELS 6 Xposition Yposition Zposition Xrotation Yrotation Zrotation
							JOINT RightHandThumb
							{
								OFFSET 0.000000 0.000000 0.000000
								CHANNELS 6 Xposition Yposition Zposition Xrotation Yrotation Zrotation
								End Site
								{
									OFFSET 0.000000 0.000000 3.937000
								}
							}
							JOINT R_Wrist_End
							{
								OFFSET -5.393688 -0.000019 0.000000
								CHANNELS 6 Xposition Yposition Zposition Xrotation Yrotation Zrotation
								End Site
								{
									OFFSET 0.000000 0.100000 0.000000
								}
							}
						}
					}
				}
			}
		}
	}
}
MOTION
Frames: 6
Frame Time: 0.041667
0.154754 34.071949 0.519682 -2.362476 3.204494 3.644064 3.317160 0.000023 0.000001 -0.119350 3.894967 -5.970637 0.000002 -16.621237 0.000002 13.533491 1.457890 -0.597784 -0.000054 -16.132050 0.000078 -10.310682 1.977026 2.654804 0.000002 -1.705425 6.364748 0.000001 0.000000 -0.000000 -3.317155 0.000010 0.000001 -14.275721 9.811048 -0.853074 -0.000002 -16.621298 -0.000001 24.765783 7.250573 -0.711690 0.000007 -16.132061 0.000210 -6.626861 -14.692551 -1.818690 0.000001 -1.705428 6.364737 -0.000012 -0.000008 -0.000002 -0.000000 0.039376 0.000001 -0.000006 -0.000001 -0.000001 -0.002028 9.206562 0.014828 1.978465 -7.858493 -4.112567 2.239029 0.143405 0.201696 -0.000000 6.846359 0.000004 2.239018 0.143400 0.201695 3.896154 6.526509 -7.933503 7.313738 -0.000030 0.000008 13.431862 -20.627347 -64.066778 10.822617 -0.000027 -0.000002 -5.753597 -10.387334 -0.926219 10.147814 -0.000042 0.000000 -0.000002 0.000002 -0.000001 0.000000 0.000000 -0.000001 0.000002 0.000003 -0.000000 3.937004 -0.000010 0.000001 0.000000 0.000001 -0.000001 -4.709522 3.818300 11.457138 -7.313737 -0.000065 0.000005 26.407431 34.484116 58.774857 -10.822576 -0.000014 -0.000003 -11.336480 13.503369 -2.926065 -10.147802 -0.000038 0.000000 -0.000001 0.000001 0.000001 -0.000001 0.000002 -0.000001 -0.000001 0.000001 0.000004 -5.393689 -0.000016 -0.000000 -0.000001 0.000002 0.000002 
0.149543 34.071857 0.525813 -2.353775 3.184520 3.647366 3.317153 0.000014 0.000001 -0.115062 3.870334 -5.977129 -0.000001 -16.621284 0.000002 13.520678 1.401281 -0.585523 -0.000057 -16.132065 0.000077 -10.314597 2.078605 2.651283 0.000002 -1.705429 6.364749 0.000001 -0.000000 0.000000 -3.317154 0.000007 0.000000 -14.281302 9.788159 -0.850093 -0.000003 -16.621256 0.000001 24.774197 7.247361 -0.712429 0.000004 -16.132059 0.000207 -6.639906 -14.648363 -1.834327 0.000002 -1.705434 6.364749 -0.000021 -0.000014 -0.000004 -0.000000 0.039365 -0.000001 -0.000006 0.000001 0.000000 -0.002012 9.206559 0.014835 1.978483 -7.845615 -4.115531 2.240291 0.143704 0.201446 0.000000 6.846354 0.000002 2.240286 0.143700 0.201445 3.894884 6.523798 -7.947487 7.313732 -0.000011 0.000003 13.446805 -20.628522 -64.042859 10.822607 -0.000031 0.000006 -5.767205 -10.384104 -0.924353 10.147808 -0.000038 -0.000000 -0.000004 0.000003 0.000001 0.000002 0.000001 -0.000000 0.000001 0.000003 -0.000001 3.937000 -0.000009 0.000001 0.000001 0.000001 0.000000 -4.723612 3.824088 11.465174 -7.313732 -0.000045 0.000012 26.420125 34.497653 58.750309 -10.822590 -0.000017 0.000003 -11.360509 13.495839 -2.926418 -10.147804 -0.000037 0.000001 0.000000 0.000000 0.000000 -0.000003 -0.000001 -0.000000 -0.000001 0.000000 0.000004 -5.393693 -0.000018 -0.000000 -0.000001 0.000002 0.000004 
0.144347 34.071819 0.531954 -2.345176 3.164319 3.650720 3.317159 0.000011 0.000003 -0.109864 3.845589 -5.983700 0.000002 -16.621284 -0.000001 13.506338 1.344881 -0.573372 -0.000051 -16.132036 0.000083 -10.317775 2.180192 2.647867 0.000002 -1.705429 6.364749 0.000002 -0.000000 0.000000 -3.317156 0.000003 0.000003 -14.286588 9.765187 -0.847197 -0.000003 -16.621283 0.000005 24.782363 7.243974 -0.713087 -0.000006 -16.132082 0.000212 -6.652867 -14.603742 -1.849992 0.000001 -1.705433 6.364735 -0.000005 -0.000022 0.000004 -0.000001 0.039362 -0.000001 -0.000006 -0.000000 0.000001 -0.001996 9.206553 0.014837 1.978499 -7.832854 -4.118497 2.241817 0.144144 0.201053 0.000000 6.846367 0.000000 2.241782 0.144146 0.201055 3.892609 6.518713 -7.968533 7.313734 -0.000036 0.000005 13.461367 -20.629504 -64.019274 10.822633 -0.000029 0.000002 -5.780615 -10.380305 -0.922285 10.147806 -0.000042 0.000001 -0.000002 0.000002 0.000001 0.000000 -0.000000 -0.000000 0.000001 0.000003 -0.000000 3.937004 -0.000012 0.000002 -0.000001 0.000001 -0.000000 -4.738124 3.832873 11.473801 -7.313731 -0.000071 0.000009 26.431645 34.511597 58.727742 -10.822583 -0.000015 -0.000002 -11.380325 13.486584 -2.926931 -10.147808 -0.000037 -0.000000 0.000001 0.000002 -0.000001 -0.000003 -0.000000 0.000001 -0.000004 -0.000000 0.000004 -5.393693 -0.000017 0.000000 -0.000001 0.000002 0.000003 
0.139709 34.071796 0.538456 -2.342124 3.133027 3.652931 3.317159 0.000018 0.000000 -0.097053 3.820071 -5.989279 0.000000 -16.621254 0.000001 13.490822 1.298309 -0.563724 -0.000056 -16.132071 0.000084 -10.322410 2.282975 2.645870 0.000002 -1.705433 6.364749 0.000001 0.000000 0.000000 -3.317152 0.000019 -0.000000 -14.286160 9.738966 -0.846265 -0.000003 -16.621273 0.000000 24.789530 7.231297 -0.710746 -0.000001 -16.132080 0.000212 -6.665553 -14.535151 -1.866363 -0.000001 -1.705430 6.364741 -0.000026 -0.000039 0.000003 0.000000 0.039374 0.000000 -0.000009 -0.000000 0.000001 -0.001983 9.206547 0.014855 1.978500 -7.825988 -4.119980 2.245737 0.144854 0.200009 -0.000000 6.846357 -0.000004 2.245690 0.144852 0.200008 3.889248 6.509597 -7.994360 7.313725 -0.000025 0.000005 13.461520 -20.619185 -64.012014 10.822618 -0.000002 -0.000003 -5.783596 -10.357047 -0.911068 10.147812 -0.000044 0.000000 -0.000001 0.000002 -0.000001 0.000000 -0.000000 0.000001 0.000004 0.000003 -0.000001 3.937004 -0.000008 0.000001 0.000000 0.000001 -0.000000 -4.752645 3.841731 11.482438 -7.313728 -0.000061 0.000010 26.459060 34.533870 58.688762 -10.822598 -0.000014 0.000002 -11.400118 13.478136 -2.927195 -10.147809 -0.000039 -0.000000 0.000001 0.000000 0.000002 -0.000005 0.000004 0.000000 -0.000000 0.000001 0.000002 -5.393693 -0.000019 0.000001 -0.000000 0.000001 0.000002 
0.135064 34.071762 0.544958 -2.339041 3.101729 3.655139 3.317156 0.000020 -0.000000 -0.083962 3.794525 -5.994876 0.000002 -16.621269 0.000001 13.474479 1.251725 -0.554109 -0.000051 -16.132051 0.000086 -10.326666 2.385732 2.643936 0.000002 -1.705429 6.364749 0.000000 0.000001 -0.000000 -3.317155 -0.000001 -0.000001 -14.285651 9.712741 -0.845358 -0.000003 -16.621267 0.000001 24.796556 7.218532 -0.708376 0.000002 -16.132088 0.000211 -6.678227 -14.466476 -1.882694 -0.000002 -1.705430 6.364738 -0.000031 -0.000038 0.000003 -0.000001 0.039361 -0.000001 -0.000001 -0.000000 0.000001 -0.001969 9.206493 0.014857 1.978471 -7.819132 -4.121495 2.250025 0.145590 0.198993 0.000000 6.846350 0.000001 2.249989 0.145583 0.198993 3.885926 6.500483 -8.020190 7.313722 -0.000042 0.000008 13.462405 -20.608520 -64.004371 10.822622 -0.000024 0.000001 -5.786583 -10.335401 -0.899975 10.147814 -0.000040 -0.000000 -0.000003 0.000002 0.000000 0.000002 0.000001 0.000000 0.000001 0.000002 0.000000 3.937000 -0.000008 0.000001 0.000001 0.000000 0.000000 -4.764530 3.852930 11.491333 -7.313729 -0.000048 0.000007 26.486367 34.556137 58.649721 -10.822598 -0.000009 0.000003 -11.420500 13.469324 -2.927587 -10.147806 -0.000038 -0.000001 -0.000001 0.000000 0.000001 0.000002 0.000001 -0.000001 -0.000001 0.000001 -0.000001 -5.393684 -0.000014 -0.000000 0.000001 0.000001 0.000001 
0.130414 34.071926 0.551751 -2.338045 3.068382 3.654880 3.317154 0.000008 -0.000001 -0.065074 3.776019 -5.993336 0.000003 -16.621288 0.000001 13.458949 1.208720 -0.551880 -0.000053 -16.132040 0.000078 -10.332580 2.478091 2.644235 0.000002 -1.705429 6.364749 -0.000001 -0.000001 -0.000000 -3.317153 0.000006 -0.000000 -14.277804 9.704875 -0.842484 -0.000003 -16.621292 -0.000001 24.797183 7.185822 -0.697504 -0.000003 -16.132080 0.000211 -6.688687 -14.393220 -1.899028 0.000002 -1.705432 6.364745 -0.000007 -0.000020 0.000001 -0.000000 0.039358 -0.000001 0.000013 -0.000001 0.000001 -0.001955 9.206511 0.014864 1.978900 -7.819570 -4.120660 2.255437 0.147027 0.197062 -0.000000 6.846348 0.000002 2.255425 0.147027 0.197062 3.882576 6.489946 -8.042730 7.313727 -0.000042 0.000009 13.455271 -20.593565 -64.006468 10.822594 -0.000024 -0.000001 -5.787531 -10.308862 -0.886727 10.147816 -0.000042 0.000001 -0.000004 0.000001 0.000001 0.000004 0.000000 -0.000001 0.000000 0.000003 -0.000001 3.937008 -0.000009 0.000001 -0.000002 0.000001 -0.000002 -4.776327 3.864108 11.500195 -7.313732 -0.000058 0.000010 26.518389 34.579445 58.602313 -10.822616 -0.000025 0.000004 -11.442561 13.466986 -2.928009 -10.147809 -0.000040 0.000000 0.000001 -0.000000 0.000002 -0.000001 0.000002 0.000001 -0.000002 0.000000 0.000002 -5.393685 -0.000019 0.000001 -0.000002 0.000001 0.000003 
